HIERARCHY
ROOT Hips
{
	OFFSET 0.000000 8.830580 0.000000
	CHANNELS 6 Xposition Yposition Zposition Zrotation Yrotation Xrotation 
	JOINT Spine
	{
		OFFSET 0.000000 0.010000 0.000000
		CHANNELS 3 Zrotation Yrotation Xrotation
		JOINT Spine1
		{
			OFFSET 0.000000 2.459130 0.000000
			CHANNELS 3 Zrotation Yrotation Xrotation
			JOINT Neck
			{
				OFFSET 0.000000 2.484630 0.000000
				CHANNELS 3 Zrotation Yrotation Xrotation
				JOINT Head_virtual
				{
					OFFSET 0.000000 0.000000 0.000000
					CHANNELS 3 Zrotation Yrotation Xrotation
					JOINT Head
					{
						OFFSET 0.000000 0.927525 0.000000
						CHANNELS 3 Zrotation Yrotation Xrotation
						End Site
						{
							OFFSET 0.000000 0.000000 0.000000
						}
					}
				}
				JOINT LeftUpArm_virtual
				{
					OFFSET 0.000000 0.000000 0.000000
					CHANNELS 3 Zrotation Yrotation Xrotation
					JOINT LeftUpArm
					{
						OFFSET 1.248820 0.000000 0.000000
						CHANNELS 3 Zrotation Yrotation Xrotation
						JOINT LeftForeArm
						{
							OFFSET 2.597580 0.000000 0.000000
							CHANNELS 3 Zrotation Yrotation Xrotation
							JOINT LeftHand
							{
								OFFSET 2.455420 0.000000 0.000000
								CHANNELS 3 Zrotation Yrotation Xrotation
								End Site
								{
									OFFSET 0.000000 0.000000 0.000000
								}
							}
						}
					}
				}
				JOINT RightUpArm_virtual
				{
					OFFSET -0.000000 -0.000000 -0.000000
					CHANNELS 3 Zrotation Yrotation Xrotation
					JOINT RightUpArm
					{
						OFFSET -1.248820 -0.000000 -0.000000
						CHANNELS 3 Zrotation Yrotation Xrotation
						JOINT RightForeArm
						{
							OFFSET -2.597580 -0.000000 -0.000000
							CHANNELS 3 Zrotation Yrotation Xrotation
							JOINT RightHand
							{
								OFFSET -2.455420 -0.000000 -0.000000
								CHANNELS 3 Zrotation Yrotation Xrotation
								End Site
								{
									OFFSET 0.000000 0.000000 0.000000
								}
							}
						}
					}
				}
			}
		}
	}
	JOINT LeftUpLeg
	{
		OFFSET 1.271939 0.000000 0.000000
		CHANNELS 3 Zrotation Yrotation Xrotation
		JOINT LeftLowLeg
		{
			OFFSET 0.000000 -4.342910 0.000000
			CHANNELS 3 Zrotation Yrotation Xrotation
			JOINT LeftFoot
			{
				OFFSET 0.000000 -4.487670 0.000000
				CHANNELS 3 Zrotation Yrotation Xrotation
				JOINT LeftToeBase
				{
					OFFSET 0.000000 0.000000 1.515070
					CHANNELS 3 Zrotation Yrotation Xrotation
					End Site
					{
						OFFSET 0.000000 0.000000 0.000000
					}
				}
			}
		}
	}
	JOINT RightUpLeg
	{
		OFFSET -1.271939 0.000000 0.000000
		CHANNELS 3 Zrotation Yrotation Xrotation
		JOINT RightLowLeg
		{
			OFFSET 0.000000 -4.342910 0.000000
			CHANNELS 3 Zrotation Yrotation Xrotation
			JOINT RightFoot
			{
				OFFSET 0.000000 -4.487670 0.000000
				CHANNELS 3 Zrotation Yrotation Xrotation
				JOINT RightToeBase
				{
					OFFSET 0.000000 0.000000 1.515070
					CHANNELS 3 Zrotation Yrotation Xrotation
					End Site
					{
						OFFSET 0.000000 0.000000 0.000000
					}
				}
			}
		}
	}
}
MOTION
Frames: 10
Frame Time: 0.041667
-16.874135 8.898959 45.932339 -7.847188 -30.317395 10.422454 -1.841372 -7.283717 -4.665531 11.795864 -5.941377 -8.244442 0.000000 0.000000 0.000000 7.103650 -40.148913 11.032337 25.800253 31.521370 -82.328100 -30.541800 0.053393 9.438060 -34.092999 -29.355700 50.471199 180.000000 -72.640999 180.000000 22.870800 -6.417400 -24.554701 17.461000 -7.387260 -11.533997 -18.186100 8.713720 -28.052500 0.000000 33.483398 0.000000 7.963640 -0.544088 -10.420300 1.713827 -2.013064 3.622359 0.000000 0.000000 15.470000 -9.535699 -0.808901 -6.935395 0.000000 0.000000 -31.113400 8.282420 4.298102 -19.003585 0.000000 0.000000 4.854200 7.454040 -12.777953 13.752959 0.000000 0.000000 -42.682400 
-16.986222 8.901739 46.035878 -8.561803 -29.957362 11.183940 -1.601850 -7.562130 -5.256080 12.382009 -6.242228 -8.412053 0.000000 0.000000 0.000000 7.091689 -40.082540 11.376542 25.720881 31.510232 -82.058202 -31.003500 -0.022689 9.212570 -33.371899 -28.295300 50.785000 -180.000000 -72.648003 180.000000 22.914801 -6.586120 -24.115400 17.247200 -7.306130 -11.385986 -17.833799 8.618280 -27.811600 0.000000 33.575802 0.000000 7.942900 -0.306628 -10.534800 2.574730 -2.285434 3.790830 0.000000 0.000000 16.122900 -10.054869 -0.628518 -7.041325 0.000000 0.000000 -31.154499 8.052337 7.738496 -18.804688 0.000000 0.000000 4.951420 8.761979 -13.702198 14.971510 0.000000 0.000000 -42.618099 
-17.101627 8.907848 46.138899 -9.100443 -29.610653 11.819295 -1.505730 -7.850673 -5.720351 12.894496 -6.508868 -8.748629 0.000000 0.000000 0.000000 7.160547 -40.006631 11.732914 25.715770 31.511726 -81.678084 -31.338499 -0.214970 9.215910 -32.653801 -27.009501 51.067600 -180.000000 -72.689003 180.000000 23.131901 -6.703300 -23.967899 17.082899 -7.256020 -11.240997 -17.421200 8.434390 -27.394699 0.000000 33.734901 0.000000 7.866330 -0.031057 -10.881500 3.312102 -2.652319 3.846997 0.000000 0.000000 17.040199 -10.796494 -0.522558 -6.907590 0.000000 0.000000 -30.955400 8.100348 9.990354 -18.723203 0.000000 0.000000 5.389110 9.649781 -14.523211 15.403116 0.000000 0.000000 -42.106501 
-17.220027 8.916224 46.239743 -9.441686 -29.191546 12.305421 -1.599868 -8.195744 -6.097093 13.430005 -6.788058 -9.184191 0.000000 0.000000 0.000000 7.533207 -40.221715 11.967150 25.186547 31.601750 -81.362303 -31.608200 -0.546683 9.531390 -31.824800 -25.557501 51.186100 180.000000 -72.839996 -180.000000 23.645800 -6.923530 -24.260900 16.818501 -7.210710 -11.299988 -16.897600 8.238940 -26.436399 0.000000 34.018799 0.000000 7.570310 -0.218829 -11.307300 3.965924 -3.139944 3.736668 0.000000 0.000000 18.274099 -11.777583 -0.672703 -6.497850 0.000000 0.000000 -31.047800 8.399857 10.994783 -18.446135 0.000000 0.000000 5.669960 10.985277 -14.870759 15.684608 0.000000 0.000000 -41.717300 
-17.340674 8.926705 46.339127 -9.639144 -28.786726 12.647852 -1.834711 -8.544891 -6.381941 13.900556 -7.060839 -9.512120 0.000000 0.000000 0.000000 7.580044 -39.999707 12.157000 25.937562 31.451947 -80.744399 -31.827200 -0.580051 10.310500 -32.665901 -24.146099 49.885899 180.000000 -73.920998 -180.000000 20.578899 -7.682370 -24.430201 16.517099 -7.356190 -11.540985 -16.239201 8.188850 -25.636499 0.000000 34.132999 0.000000 7.864380 -0.032675 -11.669200 4.606161 -3.375654 3.522930 0.000000 0.000000 19.773001 -12.691650 -1.191770 -5.766852 0.000000 0.000000 -30.832100 8.919284 11.029890 -17.946166 0.000000 0.000000 5.730220 10.828933 -14.958808 16.223217 0.000000 0.000000 -41.262899 
-17.463575 8.935499 46.434458 -9.697667 -28.380222 12.871170 -2.321947 -8.943563 -6.481717 14.415053 -7.327161 -9.917141 0.000000 0.000000 0.000000 8.540526 -40.401674 11.930080 25.526771 31.663190 -80.212064 -32.995800 -0.704224 10.702000 -29.460899 -23.894400 50.787300 -180.000000 -73.583000 180.000000 23.530600 -6.250560 -25.807501 16.087601 -7.364300 -11.743988 -15.507900 7.896100 -24.544201 0.000000 34.083599 0.000000 7.929570 0.302817 -11.780000 5.202608 -3.661615 3.172463 0.000000 0.000000 21.535200 -13.639448 -1.900936 -4.813656 0.000000 0.000000 -31.317699 9.589681 10.367037 -17.331970 0.000000 0.000000 5.889300 10.766454 -14.578954 15.858289 0.000000 0.000000 -39.682301 
-17.583821 8.944356 46.527963 -9.707141 -28.038726 12.917347 -2.723139 -9.267230 -6.489751 14.729252 -7.557574 -10.138994 0.000000 0.000000 0.000000 9.516517 -40.744143 11.547017 25.660714 31.828696 -79.653760 -33.472401 -0.740236 11.040800 -27.587601 -23.300501 51.518501 180.000000 -73.549004 -180.000000 25.216101 -5.218960 -26.225800 15.806800 -7.451160 -11.819000 -15.042900 7.560400 -23.816200 0.000000 33.975899 0.000000 8.618690 0.914038 -12.508600 5.727136 -4.144688 2.726877 0.000000 0.000000 23.709801 -14.982781 -2.759070 -3.500662 0.000000 0.000000 -31.950800 10.242910 9.669713 -16.553302 0.000000 0.000000 6.045560 10.355879 -13.641622 15.658983 0.000000 0.000000 -38.344400 
-17.700928 8.954464 46.620782 -9.766399 -27.804084 12.856204 -2.861906 -9.451701 -6.490991 14.700794 -7.715324 -10.179419 0.000000 0.000000 0.000000 10.518023 -41.162593 11.141051 25.980304 32.059322 -79.322342 -33.203098 -0.708098 11.341300 -27.247000 -22.224899 51.868999 -180.000000 -73.851997 180.000000 25.351000 -5.055220 -25.877300 15.749700 -7.660390 -11.791992 -14.768600 7.201720 -23.073400 0.000000 34.092300 0.000000 8.601920 1.283910 -12.735400 6.278713 -4.549034 2.201448 0.000000 0.000000 26.222401 -15.593350 -3.466148 -2.021199 0.000000 0.000000 -32.440500 10.853519 9.342955 -15.601731 0.000000 0.000000 6.045260 9.574415 -13.217845 15.749408 0.000000 0.000000 -37.744400 
-17.814014 8.961849 46.712224 -9.774826 -27.692259 12.680509 -2.920612 -9.533084 -6.463168 14.448142 -7.792392 -10.132539 0.000000 0.000000 0.000000 11.556954 -41.630158 10.795250 26.285160 32.309980 -79.027601 -32.786900 -0.746877 11.770200 -27.011700 -21.223499 52.082401 -180.000000 -74.000000 180.000000 25.830601 -5.030100 -25.013100 15.778600 -7.870280 -11.579010 -14.667400 6.729980 -22.439899 0.000000 34.310299 0.000000 8.587490 1.425840 -12.792600 6.798476 -4.673205 1.550747 0.000000 0.000000 29.051500 -16.430033 -4.402627 -0.062083 0.000000 0.000000 -33.353100 11.360902 9.208526 -14.569233 0.000000 0.000000 6.045190 9.302387 -13.060987 15.390053 0.000000 0.000000 -37.629299 
-17.923464 8.966789 46.800474 -9.750195 -27.711538 12.517080 -3.010877 -9.573405 -6.424278 14.165474 -7.832665 -10.017278 0.000000 0.000000 0.000000 12.908237 -42.212687 10.179051 26.303264 32.672018 -78.711656 -32.753201 -0.765202 12.146100 -26.200100 -20.369801 52.223701 180.000000 -73.706001 -180.000000 26.426100 -4.646910 -25.150200 15.789000 -8.088800 -11.565002 -14.523900 6.362350 -21.709499 0.000000 34.522301 0.000000 8.696760 1.657830 -13.056500 7.363205 -4.338420 0.615668 0.000000 0.000000 32.194099 -17.309509 -5.494874 2.359951 0.000000 0.000000 -34.536100 11.927650 8.518396 -13.696996 0.000000 0.000000 6.328590 8.925066 -12.142686 14.903512 0.000000 0.000000 -37.047800 
